<svg xmlns="http://www.w3.org/2000/svg" xmlns:xlink="http://www.w3.org/1999/xlink" id="Layer_1" x="0px" y="0px" viewBox="0 0 152 127.06" style="enable-background:new 0 0 152 127.06;" xml:space="preserve"><style type="text/css">	.st0{fill:#751644;}	.st1{fill-rule:evenodd;clip-rule:evenodd;fill:none;stroke:#112129;stroke-width:5;stroke-miterlimit:10;}</style><g id="XMLID_375_">	<path id="XMLID_378_" class="st0" d="M98.04,118.41H53.96c-18.11,0-32.84-14.73-32.84-32.84V41.49c0-18.11,14.73-32.84,32.84-32.84  h44.08c18.11,0,32.84,14.73,32.84,32.84v44.08C130.88,103.68,116.15,118.41,98.04,118.41z M53.96,13.21  c-15.59,0-28.28,12.69-28.28,28.28v44.08c0,15.59,12.69,28.28,28.28,28.28h44.08c15.59,0,28.28-12.69,28.28-28.28V41.49  c0-15.59-12.69-28.28-28.28-28.28H53.96z"></path></g><path class="st0" d="M82.99,39.9v11.49h16.02L96.75,67.5H82.99v41.31H66.46V67.5H52.48V51.39h13.98V41.4 c0-12.12,3.67-17.92,11.92-21.65c2.45-1.1,7.47-2.26,21.14-0.84v14.37h-9.91C85.96,33.28,82.99,36.24,82.99,39.9z"></path></svg>