<svg xmlns="http://www.w3.org/2000/svg" xmlns:xlink="http://www.w3.org/1999/xlink" id="Layer_1" x="0px" y="0px" viewBox="0 0 152 127.06" style="enable-background:new 0 0 152 127.06;" xml:space="preserve"><style type="text/css">	.st0{fill:#751644;}	.st1{fill-rule:evenodd;clip-rule:evenodd;fill:#FFFFFF;stroke:#112129;stroke-width:6.1964;stroke-miterlimit:10;}</style><g id="XMLID_375_">	<g id="XMLID_323_">		<path id="XMLID_328_" class="st0" d="M87.5,93.2h-23c-10.02,0-18.17-8.15-18.17-18.17v-23c0-10.02,8.15-18.17,18.17-18.17h23   c10.02,0,18.17,8.15,18.17,18.17v23C105.67,85.05,97.52,93.2,87.5,93.2z M64.5,38.31c-7.57,0-13.72,6.16-13.72,13.72v23   c0,7.57,6.16,13.72,13.72,13.72h23c7.57,0,13.72-6.16,13.72-13.72v-23c0-7.57-6.16-13.72-13.72-13.72H64.5z"></path>		<path id="XMLID_325_" class="st0" d="M76,78.54c-8.28,0-15.01-6.73-15.01-15.01c0-8.28,6.73-15.01,15.01-15.01   c8.28,0,15.01,6.73,15.01,15.01C91.01,71.81,84.28,78.54,76,78.54z M76,53.07c-5.77,0-10.46,4.69-10.46,10.46   c0,5.77,4.69,10.46,10.46,10.46c5.77,0,10.46-4.69,10.46-10.46C86.46,57.76,81.77,53.07,76,53.07z"></path>		<path id="XMLID_324_" class="st0" d="M96.55,46.89c0,2.16-1.75,3.91-3.91,3.91c-2.16,0-3.91-1.75-3.91-3.91   c0-2.16,1.75-3.91,3.91-3.91C94.8,42.98,96.55,44.73,96.55,46.89z"></path>	</g>	<path id="XMLID_378_" class="st0" d="M98.04,118.41H53.96c-18.11,0-32.84-14.73-32.84-32.84V41.49c0-18.11,14.73-32.84,32.84-32.84  h44.08c18.11,0,32.84,14.73,32.84,32.84v44.08C130.88,103.68,116.15,118.41,98.04,118.41z M53.96,13.21  c-15.59,0-28.28,12.69-28.28,28.28v44.08c0,15.59,12.69,28.28,28.28,28.28h44.08c15.59,0,28.28-12.69,28.28-28.28V41.49  c0-15.59-12.69-28.28-28.28-28.28H53.96z"></path></g></svg>