<svg xmlns="http://www.w3.org/2000/svg" width="107.275" height="15.895" viewBox="0 0 107.275 15.895"><g id="Group" transform="translate(-501.362 -1035.044)" style="isolation: isolate"><g id="shape-star" style="isolation: isolate"><path id="Path" d="M517.746,1040.832l-5.328-.774-2.382-4.828a.378.378,0,0,0-.651,0L507,1040.057l-5.329.775a.363.363,0,0,0-.2.619l3.856,3.758-.91,5.307a.363.363,0,0,0,.526.383l4.766-2.505,4.766,2.5a.363.363,0,0,0,.526-.383l-.91-5.306,3.856-3.758a.363.363,0,0,0-.2-.619Z" fill="#651fde"></path></g><g id="shape-star_copy" data-name="shape-star copy" style="isolation: isolate"><path id="Path-2" data-name="Path" d="M540.391,1040.832l-5.328-.774-2.382-4.828a.377.377,0,0,0-.651,0l-2.383,4.827-5.329.775a.363.363,0,0,0-.2.619l3.856,3.758-.91,5.307a.363.363,0,0,0,.526.383l4.765-2.505,4.766,2.5a.363.363,0,0,0,.526-.383l-.91-5.306,3.856-3.758a.363.363,0,0,0-.2-.619Z" fill="#651fde"></path></g><g id="shape-star_copy_2" data-name="shape-star copy 2" style="isolation: isolate"><path id="Path-3" data-name="Path" d="M563.036,1040.832l-5.328-.774-2.382-4.828a.378.378,0,0,0-.651,0l-2.383,4.827-5.329.775a.363.363,0,0,0-.2.619l3.856,3.758-.91,5.307a.363.363,0,0,0,.526.383l4.766-2.505,4.766,2.5a.363.363,0,0,0,.526-.383l-.91-5.306,3.857-3.758a.363.363,0,0,0-.2-.619Z" fill="#651fde"></path></g><g id="shape-star_copy_3" data-name="shape-star copy 3" style="isolation: isolate"><path id="Path-4" data-name="Path" d="M585.681,1040.832l-5.328-.774-2.382-4.828a.378.378,0,0,0-.651,0l-2.383,4.827-5.329.775a.363.363,0,0,0-.2.619l3.856,3.758-.91,5.307a.363.363,0,0,0,.526.383l4.765-2.505,4.766,2.5a.363.363,0,0,0,.526-.383l-.91-5.306,3.856-3.758a.363.363,0,0,0-.2-.619Z" fill="#651fde"></path></g><g id="shape-star_copy_4" data-name="shape-star copy 4" style="isolation: isolate"><path id="Path-5" data-name="Path" d="M608.326,1040.832l-5.328-.774-2.382-4.828a.378.378,0,0,0-.651,0l-2.383,4.827-5.329.775a.363.363,0,0,0-.2.619l3.856,3.758-.91,5.307a.363.363,0,0,0,.526.383l4.766-2.505,4.766,2.5a.363.363,0,0,0,.526-.383l-.91-5.306,3.856-3.758a.363.363,0,0,0-.2-.619Z" fill="#651fde"></path></g></g></svg>