<svg xmlns="http://www.w3.org/2000/svg" id="Layer_1" data-name="Layer 1" viewBox="0 0 152 127.06"><defs><style>.cls-1{fill:#751644;}.cls-2{fill:#932c67;opacity:0.5;}</style></defs><title>CS</title><path class="cls-1" d="M98,118.41H54A32.87,32.87,0,0,1,21.12,85.57V41.49A32.87,32.87,0,0,1,54,8.65H98a32.87,32.87,0,0,1,32.84,32.84V85.57A32.87,32.87,0,0,1,98,118.41ZM54,13.21A28.31,28.31,0,0,0,25.68,41.49V85.57A28.32,28.32,0,0,0,54,113.85H98a28.31,28.31,0,0,0,28.28-28.28V41.49A28.3,28.3,0,0,0,98,13.21Z"></path><path class="cls-1" d="M55.4,70.68l7.66,23.44a2.49,2.49,0,0,0,4,1.14L89.89,76.37s-24.32-9.48-24.32-9S55.4,70.68,55.4,70.68Z"></path><path class="cls-1" d="M115.77,25.64C100.83,31.55,52.6,51.32,34.34,58.8A2.79,2.79,0,0,0,34.56,64L55.4,70.68,63,94A2.51,2.51,0,0,0,65,95.75c.7.13,1.73-18.92,1.73-18.92S88.64,93.08,99,100.76a4.33,4.33,0,0,0,6.82-2.66c3.1-16,10.84-55.86,13.49-69.5A2.64,2.64,0,0,0,115.77,25.64Z"></path><path class="cls-2" d="M65,95.75c.7.13,1.73-18.92,1.73-18.92l36-33.81a.28.28,0,0,0-.33-.44l-47,28.1L63,94A2.51,2.51,0,0,0,65,95.75Z"></path></svg>