<svg xmlns="http://www.w3.org/2000/svg" id="Layer_1" data-name="Layer 1" viewBox="0 0 152 127.06"><defs><style>.cls-1,.cls-2{fill:#751644;}.cls-2{fill-rule:evenodd;}</style></defs><title>Untitled-1</title><path class="cls-1" d="M98,118.41H54A32.87,32.87,0,0,1,21.12,85.57V41.49A32.87,32.87,0,0,1,54,8.65H98a32.87,32.87,0,0,1,32.84,32.84V85.57A32.87,32.87,0,0,1,98,118.41ZM54,13.21A28.31,28.31,0,0,0,25.68,41.49V85.57A28.32,28.32,0,0,0,54,113.85H98a28.31,28.31,0,0,0,28.28-28.28V41.49A28.3,28.3,0,0,0,98,13.21Z"></path><path class="cls-2" d="M91.68,70c-.81-.44-4.77-2.58-5.51-2.88s-1.29-.46-1.87.34S82.08,70,81.58,70.57s-1,.58-1.79.14a22.44,22.44,0,0,1-6.44-4.33A24.7,24.7,0,0,1,69,60.53c-.45-.84,0-1.27.42-1.66s.86-.93,1.29-1.4a5.44,5.44,0,0,0,.87-1.33,1.5,1.5,0,0,0,0-1.44c-.19-.42-1.68-4.52-2.31-6.19s-1.31-1.42-1.79-1.44-1-.11-1.57-.13a3,3,0,0,0-2.23,1,9.21,9.21,0,0,0-3.13,6.74c-.15,4,2.64,8,3,8.61s5.34,9.32,13.56,12.92,8.27,2.51,9.78,2.43,4.93-1.81,5.69-3.7A6.82,6.82,0,0,0,93.21,71c-.19-.35-.73-.58-1.53-1ZM76.59,89.46A26.7,26.7,0,0,1,61.86,85L51.57,88.32l3.35-9.94A26.76,26.76,0,1,1,76.59,89.46Zm0-58.95A32.17,32.17,0,0,0,49.05,79.29L43.24,96.54l17.81-5.7A32.17,32.17,0,1,0,76.59,30.51Z"></path></svg>